<svg width="300" height="300" viewBox="0 0 300 300" fill="none" xmlns="http://www.w3.org/2000/svg">
<path d="M25.4459 262.103C13.9695 253.783 8.34609 194.074 8.34609 194.074C8.34609 194.074 -1.26541 129.721 0.14045 116.507C1.54631 103.293 22.156 84.685 28.9558 85.9235C15.1363 65.1383 43.2439 57.3076 43.2439 57.3076C43.2439 57.3076 69.9457 32.1077 131.794 18.4041C137.647 17.9147 123.349 12.0417 111.098 10.3537C115.392 1.51424 142.343 16.4364 142.343 16.4364C142.343 16.4364 131.565 4.45074 119.141 0.785112C122.728 -3.03033 139.091 7.9166 157.568 15.2079C191.223 28.512 221.434 27.2435 231.505 41.926C236.43 47.799 232.069 58.5162 239.089 59.505C246.109 60.4839 286.879 72.2198 300 114.06C284.765 95.9615 273.987 96.7006 273.987 96.7006C273.987 96.7006 297.657 124.837 297.188 145.393C297.007 153.283 289.528 159.436 283.589 170.592C274.092 188.441 264.261 211.983 262.52 222.211C259.689 238.851 256.418 266.258 249.619 267.237C242.819 268.216 244.005 160.075 244.942 153.213C247.285 143.195 203.703 131.449 203.703 131.449C203.703 131.449 235.56 152.734 227.823 173.04C219.378 149.538 207.682 149.298 207.682 149.298C207.682 149.298 232.28 198.719 217.752 208.257C209.308 152.724 187.77 141.207 170.431 132.907C153.092 124.577 115.373 128.003 93.348 136.573C71.3325 145.133 48.5996 138.291 48.5996 138.291L52.3581 159.336L41.8094 150.516L39.7054 163.98C39.7054 163.98 46.486 176.685 45.5584 184.046C38.7681 175.237 35.7173 175.237 35.7173 175.237C35.7173 175.237 41.5799 185.275 38.9977 190.648C35.7173 183.557 30.0939 186.004 30.0939 186.004C30.0939 186.004 32.4752 261.374 25.4459 262.103Z" fill="#34D399"/>
<path d="M17.2475 241.957C17.151 246.076 18.6362 247.697 19.8286 249.002C20.2092 249.423 20.5416 249.784 20.7932 250.211C21.3542 251.167 21.7538 252.355 21.9801 253.742C26.8946 283.912 28.0008 288.024 40.4711 294.676C46.4404 297.863 58.7145 300 71.0099 300C80.5977 300 94.4464 298.722 105.963 292.638C122.742 283.772 128.994 253.166 129.287 251.626C129.304 251.471 129.799 247.819 137.465 247.819H137.473L137.942 247.815C145.214 247.815 145.715 251.471 145.768 251.865C146.026 253.166 152.279 283.767 169.057 292.638C180.575 298.726 194.423 300 204.011 300C216.307 300 228.578 297.858 234.548 294.676C247.02 288.024 248.126 283.908 253.039 253.738C253.264 252.355 253.666 251.168 254.227 250.208C254.477 249.781 254.809 249.419 255.19 248.998C256.382 247.693 257.87 246.067 257.772 241.953C257.755 241.264 257.785 240.038 257.813 238.694C257.862 236.642 257.907 234.331 257.838 233.085C257.485 226.983 252.154 224.499 249.471 224.056C232.315 220.488 211.719 219.454 189.975 221.035L188.839 221.117C175.576 222.067 168.271 222.59 159.565 226.538C157.545 227.455 155.467 228.492 153.627 229.449C150.354 231.157 145.626 233.009 143.085 233.573C142.063 233.804 141.026 234.03 140.109 234.217C138.787 234.489 136.231 234.489 134.909 234.217C133.991 234.026 132.955 233.804 131.93 233.573C129.396 233.009 124.668 231.157 121.392 229.449C119.554 228.493 117.477 227.455 115.455 226.538C106.749 222.59 99.4456 222.067 86.1824 221.117L85.0454 221.035C63.2951 219.459 42.6692 220.496 25.6349 224.043C22.871 224.502 17.5427 226.987 17.1905 233.089C17.1146 234.334 17.1644 236.646 17.2111 238.697C17.2349 240.046 17.2633 241.274 17.2475 241.957ZM252.833 234.46V238.975L247.281 236.719L252.833 234.46ZM156.557 240.937C157.397 238.825 162.686 231.789 195.497 229.855C201.25 229.516 206.129 229.35 210.416 229.35C229.763 229.35 235.92 232.873 239.583 238.554C241.776 241.952 243.266 249.061 243.283 253.568C243.324 263.41 241.37 280.903 227.895 287.517C221.72 290.546 212.46 292.355 203.13 292.355C185.221 292.355 170.905 286.189 164.845 275.866C152.094 254.176 156.4 241.299 156.557 240.937ZM35.4268 238.55C39.0943 232.867 45.2503 229.347 64.5952 229.347C68.883 229.347 73.7627 229.513 79.5152 229.851C112.319 231.789 117.614 238.826 118.554 241.183C118.604 241.3 122.913 254.182 110.175 275.868C104.108 286.191 89.7977 292.357 71.8906 292.357C62.5569 292.357 53.2967 290.548 47.1201 287.519C33.6441 280.905 31.692 263.411 31.7308 253.569C31.7474 249.056 33.2366 241.949 35.4268 238.55ZM22.1739 234.46L27.7239 236.718L22.1739 238.974V234.46Z" fill="#34D399"/>
</svg>
