<svg width="306" height="200" viewBox="0 0 306 200" fill="none" xmlns="http://www.w3.org/2000/svg">
<path d="M265.667 189.187C276.042 189.187 284.452 181.102 284.452 171.129V137.952C284.452 133.535 284.452 131.327 284.971 129.248C285.432 127.406 286.191 125.645 287.22 124.029C288.382 122.207 290.007 120.645 293.256 117.522L303.237 107.927L293.256 98.3316C290.007 95.2085 288.382 93.6465 287.22 91.8245C286.191 90.2083 285.432 88.4471 284.971 86.6045C284.452 84.5263 284.452 82.318 284.452 77.9012V44.7244C284.452 34.7514 276.042 26.6666 265.667 26.6666" stroke="#34D399" stroke-width="5" stroke-linecap="round" stroke-linejoin="round"/>
<path d="M40.5704 189.187C30.1954 189.187 21.7852 181.102 21.7852 171.129V137.952C21.7852 133.535 21.7852 131.327 21.2658 129.248C20.8056 127.406 20.0467 125.645 19.0172 124.029C17.8554 122.207 16.2304 120.645 12.9815 117.522L3 107.927L12.9815 98.3316C16.2304 95.2085 17.8554 93.6465 19.0172 91.8245C20.0467 90.2083 20.8056 88.4471 21.2658 86.6045C21.7852 84.5263 21.7852 82.318 21.7852 77.9012V44.7244C21.7852 34.7514 30.1954 26.6666 40.5704 26.6666" stroke="#34D399" stroke-width="5" stroke-linecap="round" stroke-linejoin="round"/>
<path d="M75.2415 174.735C68.0768 169.189 64.5661 129.383 64.5661 129.383C64.5661 129.383 58.5657 86.4808 59.4434 77.6713C60.3211 68.8618 73.1876 56.4566 77.4327 57.2823C68.8052 43.4255 86.3527 38.2051 86.3527 38.2051C86.3527 38.2051 103.023 21.4052 141.634 12.2694C145.288 11.9431 136.362 8.02778 128.714 6.90246C131.395 1.00949 148.22 10.9576 148.22 10.9576C148.22 10.9576 141.491 2.96716 133.735 0.523408C135.974 -2.02022 146.19 5.27773 157.725 10.1386C178.735 19.008 197.596 18.1624 203.883 27.9507C206.958 31.866 204.235 39.0108 208.618 39.67C213 40.3226 238.453 48.1466 246.644 76.0399C237.133 63.9743 230.404 64.4671 230.404 64.4671C230.404 64.4671 245.182 83.2247 244.889 96.9283C244.776 102.189 240.107 106.291 236.399 113.728C230.47 125.627 224.332 141.322 223.246 148.141C221.478 159.234 219.437 177.506 215.191 178.158C210.946 178.811 211.687 106.717 212.272 102.142C213.735 95.4634 186.527 87.6328 186.527 87.6328C186.527 87.6328 206.415 101.823 201.585 115.36C196.313 99.6917 189.011 99.5319 189.011 99.5319C189.011 99.5319 204.367 132.479 195.298 138.838C190.026 101.816 176.58 94.1383 165.755 88.6049C154.931 83.0516 131.383 85.3355 117.632 91.0487C103.888 96.7552 89.6962 92.194 89.6962 92.194L92.0427 106.224L85.4571 100.344L84.1436 109.32C84.1436 109.32 88.3767 117.79 87.7976 122.698C83.5585 116.825 81.6539 116.825 81.6539 116.825C81.6539 116.825 85.3138 123.517 83.7018 127.099C81.6539 122.371 78.1432 124.003 78.1432 124.003C78.1432 124.003 79.6299 174.249 75.2415 174.735Z" fill="#1E293B"/>
<path d="M70.1233 161.305C70.063 164.05 70.9902 165.132 71.7346 166.001C71.9722 166.282 72.1797 166.523 72.3368 166.807C72.687 167.445 72.9365 168.236 73.0778 169.162C76.1459 189.275 76.8365 192.016 84.6216 196.451C88.3482 198.575 96.0109 200 103.687 200C109.672 200 118.318 199.148 125.508 195.092C135.983 189.181 139.886 168.778 140.069 167.751C140.08 167.647 140.389 165.213 145.174 165.213H145.179L145.472 165.21C150.012 165.21 150.325 167.647 150.358 167.91C150.519 168.778 154.423 189.178 164.897 195.092C172.088 199.151 180.733 200 186.719 200C194.395 200 202.056 198.572 205.783 196.451C213.569 192.016 214.26 189.272 217.327 169.159C217.467 168.236 217.718 167.445 218.068 166.805C218.225 166.521 218.432 166.28 218.67 165.999C219.414 165.129 220.343 164.045 220.282 161.302C220.271 160.842 220.289 160.025 220.307 159.129C220.338 157.761 220.366 156.221 220.323 155.39C220.103 151.322 216.774 149.666 215.099 149.371C204.389 146.992 191.531 146.303 177.956 147.357L177.247 147.411C168.967 148.045 164.407 148.393 158.971 151.025C157.71 151.637 156.413 152.328 155.265 152.966C153.221 154.105 150.269 155.34 148.683 155.716C148.045 155.87 147.398 156.02 146.825 156.145C146 156.326 144.404 156.326 143.579 156.145C143.006 156.018 142.359 155.87 141.719 155.716C140.137 155.34 137.185 154.105 135.14 152.966C133.993 152.329 132.696 151.637 131.434 151.025C125.999 148.393 121.439 148.045 113.159 147.411L112.449 147.357C98.8706 146.306 85.9939 146.997 75.3595 149.362C73.634 149.668 70.3075 151.325 70.0877 155.393C70.0403 156.223 70.0714 157.764 70.1005 159.131C70.1154 160.03 70.1331 160.849 70.1233 161.305ZM217.198 156.307V159.317L213.732 157.812L217.198 156.307ZM157.093 160.625C157.618 159.217 160.92 154.526 181.404 153.236C184.995 153.011 188.041 152.9 190.717 152.9C202.796 152.9 206.64 155.249 208.926 159.036C210.295 161.301 211.226 166.041 211.236 169.045C211.262 175.606 210.042 187.269 201.629 191.678C197.774 193.697 191.994 194.904 186.169 194.904C174.988 194.904 166.051 190.793 162.268 183.911C154.307 169.451 156.995 160.866 157.093 160.625ZM81.4725 159.034C83.7621 155.245 87.6053 152.898 99.6822 152.898C102.359 152.898 105.405 153.009 108.997 153.234C129.476 154.526 132.781 159.217 133.368 160.789C133.4 160.867 136.09 169.454 128.138 183.912C124.35 190.794 115.416 194.905 104.237 194.905C98.4097 194.905 92.6286 193.699 88.7726 191.679C80.3596 187.27 79.1409 175.608 79.1651 169.046C79.1755 166.038 80.1052 161.299 81.4725 159.034ZM73.1988 156.307L76.6636 157.812L73.1988 159.316V156.307Z" fill="#1E293B"/>
</svg>
